<svg width="62" height="12" viewBox="0 0 62 12" fill="none" xmlns="http://www.w3.org/2000/svg">
<path d="M1.208 8.022H4.928V9H0.0440001V0.401999H1.208V8.022ZM8.28913 2.826C8.73313 2.826 9.13313 2.9 9.48913 3.048C9.84913 3.196 10.1531 3.406 10.4011 3.678C10.6531 3.95 10.8451 4.28 10.9771 4.668C11.1131 5.052 11.1811 5.482 11.1811 5.958C11.1811 6.438 11.1131 6.87 10.9771 7.254C10.8451 7.638 10.6531 7.966 10.4011 8.238C10.1531 8.51 9.84913 8.72 9.48913 8.868C9.13313 9.012 8.73313 9.084 8.28913 9.084C7.84513 9.084 7.44313 9.012 7.08313 8.868C6.72713 8.72 6.42313 8.51 6.17113 8.238C5.91913 7.966 5.72513 7.638 5.58913 7.254C5.45313 6.87 5.38513 6.438 5.38513 5.958C5.38513 5.482 5.45313 5.052 5.58913 4.668C5.72513 4.28 5.91913 3.95 6.17113 3.678C6.42313 3.406 6.72713 3.196 7.08313 3.048C7.44313 2.9 7.84513 2.826 8.28913 2.826ZM8.28913 8.25C8.88913 8.25 9.33713 8.05 9.63313 7.65C9.92913 7.246 10.0771 6.684 10.0771 5.964C10.0771 5.24 9.92913 4.676 9.63313 4.272C9.33713 3.868 8.88913 3.666 8.28913 3.666C7.98513 3.666 7.72113 3.718 7.49713 3.822C7.27313 3.926 7.08513 4.076 6.93313 4.272C6.78513 4.468 6.67313 4.71 6.59713 4.998C6.52513 5.282 6.48913 5.604 6.48913 5.964C6.48913 6.324 6.52513 6.646 6.59713 6.93C6.67313 7.214 6.78513 7.454 6.93313 7.65C7.08513 7.842 7.27313 7.99 7.49713 8.094C7.72113 8.198 7.98513 8.25 8.28913 8.25ZM14.9571 2.826C15.4011 2.826 15.8011 2.9 16.1571 3.048C16.5171 3.196 16.8211 3.406 17.0691 3.678C17.3211 3.95 17.5131 4.28 17.6451 4.668C17.7811 5.052 17.8491 5.482 17.8491 5.958C17.8491 6.438 17.7811 6.87 17.6451 7.254C17.5131 7.638 17.3211 7.966 17.0691 8.238C16.8211 8.51 16.5171 8.72 16.1571 8.868C15.8011 9.012 15.4011 9.084 14.9571 9.084C14.5131 9.084 14.1111 9.012 13.7511 8.868C13.3951 8.72 13.0911 8.51 12.8391 8.238C12.5871 7.966 12.3931 7.638 12.2571 7.254C12.1211 6.87 12.0531 6.438 12.0531 5.958C12.0531 5.482 12.1211 5.052 12.2571 4.668C12.3931 4.28 12.5871 3.95 12.8391 3.678C13.0911 3.406 13.3951 3.196 13.7511 3.048C14.1111 2.9 14.5131 2.826 14.9571 2.826ZM14.9571 8.25C15.5571 8.25 16.0051 8.05 16.3011 7.65C16.5971 7.246 16.7451 6.684 16.7451 5.964C16.7451 5.24 16.5971 4.676 16.3011 4.272C16.0051 3.868 15.5571 3.666 14.9571 3.666C14.6531 3.666 14.3891 3.718 14.1651 3.822C13.9411 3.926 13.7531 4.076 13.6011 4.272C13.4531 4.468 13.3411 4.71 13.2651 4.998C13.1931 5.282 13.1571 5.604 13.1571 5.964C13.1571 6.324 13.1931 6.646 13.2651 6.93C13.3411 7.214 13.4531 7.454 13.6011 7.65C13.7531 7.842 13.9411 7.99 14.1651 8.094C14.3891 8.198 14.6531 8.25 14.9571 8.25ZM20.2751 0.162V5.364H20.5511C20.6311 5.364 20.6971 5.354 20.7491 5.334C20.8011 5.31 20.8591 5.264 20.9231 5.196L22.8431 3.138C22.9031 3.074 22.9631 3.022 23.0231 2.982C23.0831 2.942 23.1631 2.922 23.2631 2.922H24.2351L21.9971 5.304C21.9411 5.372 21.8851 5.432 21.8291 5.484C21.7771 5.536 21.7171 5.582 21.6491 5.622C21.7211 5.67 21.7851 5.726 21.8411 5.79C21.9011 5.85 21.9571 5.92 22.0091 6L24.3851 9H23.4251C23.3371 9 23.2611 8.984 23.1971 8.952C23.1371 8.916 23.0791 8.862 23.0231 8.79L21.0251 6.3C20.9651 6.216 20.9051 6.162 20.8451 6.138C20.7851 6.11 20.6951 6.096 20.5751 6.096H20.2751V9H19.2011V0.162H20.2751ZM28.938 3.924C28.89 4.012 28.816 4.056 28.716 4.056C28.656 4.056 28.588 4.034 28.512 3.99C28.436 3.946 28.342 3.898 28.23 3.846C28.122 3.79 27.992 3.74 27.84 3.696C27.688 3.648 27.508 3.624 27.3 3.624C27.12 3.624 26.958 3.648 26.814 3.696C26.67 3.74 26.546 3.802 26.442 3.882C26.342 3.962 26.264 4.056 26.208 4.164C26.156 4.268 26.13 4.382 26.13 4.506C26.13 4.662 26.174 4.792 26.262 4.896C26.354 5 26.474 5.09 26.622 5.166C26.77 5.242 26.938 5.31 27.126 5.37C27.314 5.426 27.506 5.488 27.702 5.556C27.902 5.62 28.096 5.692 28.284 5.772C28.472 5.852 28.64 5.952 28.788 6.072C28.936 6.192 29.054 6.34 29.142 6.516C29.234 6.688 29.28 6.896 29.28 7.14C29.28 7.42 29.23 7.68 29.13 7.92C29.03 8.156 28.882 8.362 28.686 8.538C28.49 8.71 28.25 8.846 27.966 8.946C27.682 9.046 27.354 9.096 26.982 9.096C26.558 9.096 26.174 9.028 25.83 8.892C25.486 8.752 25.194 8.574 24.954 8.358L25.206 7.95C25.238 7.898 25.276 7.858 25.32 7.83C25.364 7.802 25.422 7.788 25.494 7.788C25.566 7.788 25.642 7.816 25.722 7.872C25.802 7.928 25.898 7.99 26.01 8.058C26.126 8.126 26.264 8.188 26.424 8.244C26.588 8.3 26.792 8.328 27.036 8.328C27.244 8.328 27.426 8.302 27.582 8.25C27.738 8.194 27.868 8.12 27.972 8.028C28.076 7.936 28.152 7.83 28.2 7.71C28.252 7.59 28.278 7.462 28.278 7.326C28.278 7.158 28.232 7.02 28.14 6.912C28.052 6.8 27.934 6.706 27.786 6.63C27.638 6.55 27.468 6.482 27.276 6.426C27.088 6.366 26.894 6.304 26.694 6.24C26.498 6.176 26.304 6.104 26.112 6.024C25.924 5.94 25.756 5.836 25.608 5.712C25.46 5.588 25.34 5.436 25.248 5.256C25.16 5.072 25.116 4.85 25.116 4.59C25.116 4.358 25.164 4.136 25.26 3.924C25.356 3.708 25.496 3.52 25.68 3.36C25.864 3.196 26.09 3.066 26.358 2.97C26.626 2.874 26.932 2.826 27.276 2.826C27.676 2.826 28.034 2.89 28.35 3.018C28.67 3.142 28.946 3.314 29.178 3.534L28.938 3.924ZM35.0275 2.82C35.2915 2.82 35.5375 2.85 35.7655 2.91C35.9975 2.966 36.2075 3.05 36.3955 3.162H38.0455V3.558C38.0455 3.69 37.9615 3.774 37.7935 3.81L37.1035 3.906C37.2395 4.166 37.3075 4.456 37.3075 4.776C37.3075 5.072 37.2495 5.342 37.1335 5.586C37.0215 5.826 36.8635 6.032 36.6595 6.204C36.4595 6.376 36.2195 6.508 35.9395 6.6C35.6635 6.692 35.3595 6.738 35.0275 6.738C34.7435 6.738 34.4755 6.704 34.2235 6.636C34.0955 6.716 33.9975 6.802 33.9295 6.894C33.8655 6.986 33.8335 7.076 33.8335 7.164C33.8335 7.308 33.8915 7.418 34.0075 7.494C34.1235 7.566 34.2775 7.618 34.4695 7.65C34.6615 7.682 34.8795 7.702 35.1235 7.71C35.3675 7.718 35.6155 7.732 35.8675 7.752C36.1235 7.768 36.3735 7.798 36.6175 7.842C36.8615 7.886 37.0795 7.958 37.2715 8.058C37.4635 8.158 37.6175 8.296 37.7335 8.472C37.8495 8.648 37.9075 8.876 37.9075 9.156C37.9075 9.416 37.8415 9.668 37.7095 9.912C37.5815 10.156 37.3955 10.372 37.1515 10.56C36.9075 10.752 36.6095 10.904 36.2575 11.016C35.9055 11.132 35.5075 11.19 35.0635 11.19C34.6195 11.19 34.2295 11.146 33.8935 11.058C33.5615 10.97 33.2855 10.852 33.0655 10.704C32.8455 10.556 32.6795 10.384 32.5675 10.188C32.4595 9.996 32.4055 9.794 32.4055 9.582C32.4055 9.282 32.4995 9.028 32.6875 8.82C32.8795 8.608 33.1415 8.44 33.4735 8.316C33.3015 8.236 33.1635 8.13 33.0595 7.998C32.9595 7.862 32.9095 7.682 32.9095 7.458C32.9095 7.37 32.9255 7.28 32.9575 7.188C32.9895 7.092 33.0375 6.998 33.1015 6.906C33.1695 6.814 33.2515 6.726 33.3475 6.642C33.4435 6.558 33.5555 6.484 33.6835 6.42C33.3835 6.252 33.1475 6.03 32.9755 5.754C32.8075 5.474 32.7235 5.148 32.7235 4.776C32.7235 4.48 32.7795 4.212 32.8915 3.972C33.0075 3.728 33.1675 3.522 33.3715 3.354C33.5755 3.182 33.8175 3.05 34.0975 2.958C34.3815 2.866 34.6915 2.82 35.0275 2.82ZM36.9235 9.33C36.9235 9.178 36.8815 9.056 36.7975 8.964C36.7135 8.872 36.5995 8.802 36.4555 8.754C36.3115 8.702 36.1455 8.664 35.9575 8.64C35.7695 8.616 35.5715 8.6 35.3635 8.592C35.1555 8.58 34.9435 8.568 34.7275 8.556C34.5115 8.544 34.3055 8.522 34.1095 8.49C33.8815 8.598 33.6955 8.73 33.5515 8.886C33.4115 9.042 33.3415 9.228 33.3415 9.444C33.3415 9.58 33.3755 9.706 33.4435 9.822C33.5155 9.942 33.6235 10.044 33.7675 10.128C33.9115 10.216 34.0915 10.284 34.3075 10.332C34.5275 10.384 34.7855 10.41 35.0815 10.41C35.3695 10.41 35.6275 10.384 35.8555 10.332C36.0835 10.28 36.2755 10.206 36.4315 10.11C36.5915 10.014 36.7135 9.9 36.7975 9.768C36.8815 9.636 36.9235 9.49 36.9235 9.33ZM35.0275 6.03C35.2435 6.03 35.4335 6 35.5975 5.94C35.7655 5.88 35.9055 5.796 36.0175 5.688C36.1295 5.58 36.2135 5.452 36.2695 5.304C36.3255 5.152 36.3535 4.986 36.3535 4.806C36.3535 4.434 36.2395 4.138 36.0115 3.918C35.7875 3.698 35.4595 3.588 35.0275 3.588C34.5995 3.588 34.2715 3.698 34.0435 3.918C33.8195 4.138 33.7075 4.434 33.7075 4.806C33.7075 4.986 33.7355 5.152 33.7915 5.304C33.8515 5.452 33.9375 5.58 34.0495 5.688C34.1615 5.796 34.2995 5.88 34.4635 5.94C34.6275 6 34.8155 6.03 35.0275 6.03ZM41.5704 2.826C42.0144 2.826 42.4144 2.9 42.7704 3.048C43.1304 3.196 43.4344 3.406 43.6824 3.678C43.9344 3.95 44.1264 4.28 44.2584 4.668C44.3944 5.052 44.4624 5.482 44.4624 5.958C44.4624 6.438 44.3944 6.87 44.2584 7.254C44.1264 7.638 43.9344 7.966 43.6824 8.238C43.4344 8.51 43.1304 8.72 42.7704 8.868C42.4144 9.012 42.0144 9.084 41.5704 9.084C41.1264 9.084 40.7244 9.012 40.3644 8.868C40.0084 8.72 39.7044 8.51 39.4524 8.238C39.2004 7.966 39.0064 7.638 38.8704 7.254C38.7344 6.87 38.6664 6.438 38.6664 5.958C38.6664 5.482 38.7344 5.052 38.8704 4.668C39.0064 4.28 39.2004 3.95 39.4524 3.678C39.7044 3.406 40.0084 3.196 40.3644 3.048C40.7244 2.9 41.1264 2.826 41.5704 2.826ZM41.5704 8.25C42.1704 8.25 42.6184 8.05 42.9144 7.65C43.2104 7.246 43.3584 6.684 43.3584 5.964C43.3584 5.24 43.2104 4.676 42.9144 4.272C42.6184 3.868 42.1704 3.666 41.5704 3.666C41.2664 3.666 41.0024 3.718 40.7784 3.822C40.5544 3.926 40.3664 4.076 40.2144 4.272C40.0664 4.468 39.9544 4.71 39.8784 4.998C39.8064 5.282 39.7704 5.604 39.7704 5.964C39.7704 6.324 39.8064 6.646 39.8784 6.93C39.9544 7.214 40.0664 7.454 40.2144 7.65C40.3664 7.842 40.5544 7.99 40.7784 8.094C41.0024 8.198 41.2664 8.25 41.5704 8.25ZM48.2383 2.826C48.6823 2.826 49.0823 2.9 49.4383 3.048C49.7983 3.196 50.1023 3.406 50.3503 3.678C50.6023 3.95 50.7943 4.28 50.9263 4.668C51.0623 5.052 51.1303 5.482 51.1303 5.958C51.1303 6.438 51.0623 6.87 50.9263 7.254C50.7943 7.638 50.6023 7.966 50.3503 8.238C50.1023 8.51 49.7983 8.72 49.4383 8.868C49.0823 9.012 48.6823 9.084 48.2383 9.084C47.7943 9.084 47.3923 9.012 47.0323 8.868C46.6763 8.72 46.3723 8.51 46.1203 8.238C45.8683 7.966 45.6743 7.638 45.5383 7.254C45.4023 6.87 45.3343 6.438 45.3343 5.958C45.3343 5.482 45.4023 5.052 45.5383 4.668C45.6743 4.28 45.8683 3.95 46.1203 3.678C46.3723 3.406 46.6763 3.196 47.0323 3.048C47.3923 2.9 47.7943 2.826 48.2383 2.826ZM48.2383 8.25C48.8383 8.25 49.2863 8.05 49.5823 7.65C49.8783 7.246 50.0263 6.684 50.0263 5.964C50.0263 5.24 49.8783 4.676 49.5823 4.272C49.2863 3.868 48.8383 3.666 48.2383 3.666C47.9343 3.666 47.6703 3.718 47.4463 3.822C47.2223 3.926 47.0343 4.076 46.8823 4.272C46.7343 4.468 46.6223 4.71 46.5463 4.998C46.4743 5.282 46.4383 5.604 46.4383 5.964C46.4383 6.324 46.4743 6.646 46.5463 6.93C46.6223 7.214 46.7343 7.454 46.8823 7.65C47.0343 7.842 47.2223 7.99 47.4463 8.094C47.6703 8.198 47.9343 8.25 48.2383 8.25ZM56.7243 9C56.5723 9 56.4763 8.926 56.4363 8.778L56.3403 8.04C56.0803 8.356 55.7823 8.61 55.4463 8.802C55.1143 8.99 54.7323 9.084 54.3003 9.084C53.9523 9.084 53.6363 9.018 53.3523 8.886C53.0683 8.75 52.8263 8.552 52.6263 8.292C52.4263 8.032 52.2723 7.708 52.1643 7.32C52.0563 6.932 52.0023 6.486 52.0023 5.982C52.0023 5.534 52.0623 5.118 52.1823 4.734C52.3023 4.346 52.4743 4.01 52.6983 3.726C52.9263 3.442 53.2023 3.22 53.5263 3.06C53.8503 2.896 54.2183 2.814 54.6303 2.814C55.0023 2.814 55.3203 2.878 55.5843 3.006C55.8483 3.13 56.0843 3.306 56.2923 3.534V0.162H57.3603V9H56.7243ZM54.6543 8.22C55.0023 8.22 55.3063 8.14 55.5663 7.98C55.8303 7.82 56.0723 7.594 56.2923 7.302V4.362C56.0963 4.098 55.8803 3.914 55.6443 3.81C55.4123 3.702 55.1543 3.648 54.8703 3.648C54.3023 3.648 53.8663 3.85 53.5623 4.254C53.2583 4.658 53.1063 5.234 53.1063 5.982C53.1063 6.378 53.1403 6.718 53.2083 7.002C53.2763 7.282 53.3763 7.514 53.5083 7.698C53.6403 7.878 53.8023 8.01 53.9943 8.094C54.1863 8.178 54.4063 8.22 54.6543 8.22ZM60.8534 0.401999V3.834C60.8534 4.014 60.8494 4.19 60.8414 4.362C60.8374 4.534 60.8294 4.708 60.8174 4.884C60.8054 5.056 60.7894 5.234 60.7694 5.418C60.7534 5.598 60.7334 5.792 60.7094 6H59.9834C59.9594 5.792 59.9374 5.598 59.9174 5.418C59.9014 5.234 59.8874 5.056 59.8754 4.884C59.8634 4.708 59.8534 4.534 59.8454 4.362C59.8414 4.19 59.8394 4.014 59.8394 3.834V0.401999H60.8534ZM59.5814 8.34C59.5814 8.236 59.5994 8.138 59.6354 8.046C59.6754 7.954 59.7274 7.874 59.7914 7.806C59.8594 7.738 59.9394 7.684 60.0314 7.644C60.1234 7.604 60.2214 7.584 60.3254 7.584C60.4294 7.584 60.5274 7.604 60.6194 7.644C60.7114 7.684 60.7914 7.738 60.8594 7.806C60.9274 7.874 60.9794 7.954 61.0154 8.046C61.0554 8.138 61.0754 8.236 61.0754 8.34C61.0754 8.448 61.0554 8.548 61.0154 8.64C60.9794 8.728 60.9274 8.806 60.8594 8.874C60.7914 8.942 60.7114 8.994 60.6194 9.03C60.5274 9.07 60.4294 9.09 60.3254 9.09C60.2214 9.09 60.1234 9.07 60.0314 9.03C59.9394 8.994 59.8594 8.942 59.7914 8.874C59.7274 8.806 59.6754 8.728 59.6354 8.64C59.5994 8.548 59.5814 8.448 59.5814 8.34Z" fill="#03CEA4"/>
</svg>
